<mxfile host="65bd71144e">
    <diagram id="tH6w5fbUkzaOGa8yHMxp" name="Page-1">
        <mxGraphModel dx="708" dy="837" grid="1" gridSize="10" guides="1" tooltips="1" connect="1" arrows="1" fold="1" page="0" pageScale="1" pageWidth="850" pageHeight="1100" math="0" shadow="0">
            <root>
                <mxCell id="0"/>
                <mxCell id="1" parent="0"/>
                <mxCell id="2" value="&lt;h2&gt;Api Calls&lt;/h2&gt;" style="rounded=1;whiteSpace=wrap;html=1;fillColor=default;fillStyle=auto;horizontal=1;verticalAlign=top;" parent="1" vertex="1">
                    <mxGeometry x="520" y="-10" width="320" height="200" as="geometry"/>
                </mxCell>
                <mxCell id="13" style="edgeStyle=none;html=1;exitX=0.5;exitY=1;exitDx=0;exitDy=0;entryX=0.5;entryY=0;entryDx=0;entryDy=0;fontSize=13;" parent="1" source="3" target="9" edge="1">
                    <mxGeometry relative="1" as="geometry"/>
                </mxCell>
                <mxCell id="3" value="Planet" style="whiteSpace=wrap;html=1;fontSize=18;" parent="1" vertex="1">
                    <mxGeometry x="560" y="70" width="80" height="60" as="geometry"/>
                </mxCell>
                <mxCell id="16" style="edgeStyle=none;html=1;entryX=0.5;entryY=0;entryDx=0;entryDy=0;fontSize=36;" parent="1" source="4" target="10" edge="1">
                    <mxGeometry relative="1" as="geometry"/>
                </mxCell>
                <mxCell id="4" value="Vehicle" style="whiteSpace=wrap;html=1;fontSize=18;" parent="1" vertex="1">
                    <mxGeometry x="640" y="70" width="80" height="60" as="geometry"/>
                </mxCell>
                <mxCell id="8" style="edgeStyle=none;html=1;exitX=0.5;exitY=1;exitDx=0;exitDy=0;entryX=0.5;entryY=0;entryDx=0;entryDy=0;fontSize=18;" parent="1" source="5" target="14" edge="1">
                    <mxGeometry relative="1" as="geometry">
                        <mxPoint x="1060" y="320" as="targetPoint"/>
                    </mxGeometry>
                </mxCell>
                <mxCell id="5" value="FindF" style="whiteSpace=wrap;html=1;fontSize=18;" parent="1" vertex="1">
                    <mxGeometry x="720" y="70" width="80" height="60" as="geometry"/>
                </mxCell>
                <mxCell id="9" value="&lt;blockquote style=&quot;margin: 0 0 0 40px; border: none; padding: 0px;&quot;&gt;&lt;div style=&quot;font-size: 14px;&quot;&gt;&lt;div&gt;&lt;pre&gt;&lt;div class=&quot;p-4 overflow-y-auto&quot;&gt;&lt;code class=&quot;!whitespace-pre hljs language-json&quot;&gt;&lt;span class=&quot;hljs-punctuation&quot;&gt;{&lt;/span&gt;&lt;br/&gt;  &lt;span class=&quot;hljs-attr&quot;&gt;&quot;planets&quot;&lt;/span&gt;&lt;span class=&quot;hljs-punctuation&quot;&gt;:&lt;/span&gt; &lt;span class=&quot;hljs-punctuation&quot;&gt;[&lt;/span&gt;&lt;br/&gt;    &lt;span class=&quot;hljs-punctuation&quot;&gt;{&lt;/span&gt; &lt;span class=&quot;hljs-attr&quot;&gt;&quot;name&quot;&lt;/span&gt;&lt;span class=&quot;hljs-punctuation&quot;&gt;:&lt;/span&gt; &lt;span class=&quot;hljs-string&quot;&gt;&quot;Donlon&quot;&lt;/span&gt;&lt;span class=&quot;hljs-punctuation&quot;&gt;,&lt;/span&gt; &lt;span class=&quot;hljs-attr&quot;&gt;&quot;distance&quot;&lt;/span&gt;&lt;span class=&quot;hljs-punctuation&quot;&gt;:&lt;/span&gt; &lt;span class=&quot;hljs-number&quot;&gt;100&lt;/span&gt; &lt;span class=&quot;hljs-punctuation&quot;&gt;}&lt;/span&gt;&lt;span class=&quot;hljs-punctuation&quot;&gt;,&lt;/span&gt;&lt;br/&gt;    &lt;span class=&quot;hljs-punctuation&quot;&gt;{&lt;/span&gt; &lt;span class=&quot;hljs-attr&quot;&gt;&quot;name&quot;&lt;/span&gt;&lt;span class=&quot;hljs-punctuation&quot;&gt;:&lt;/span&gt; &lt;span class=&quot;hljs-string&quot;&gt;&quot;Enchai&quot;&lt;/span&gt;&lt;span class=&quot;hljs-punctuation&quot;&gt;,&lt;/span&gt; &lt;span class=&quot;hljs-attr&quot;&gt;&quot;distance&quot;&lt;/span&gt;&lt;span class=&quot;hljs-punctuation&quot;&gt;:&lt;/span&gt; &lt;span class=&quot;hljs-number&quot;&gt;200&lt;/span&gt; &lt;span class=&quot;hljs-punctuation&quot;&gt;}&lt;/span&gt;&lt;span class=&quot;hljs-punctuation&quot;&gt;,&lt;/span&gt;&lt;br/&gt;    &lt;span class=&quot;hljs-punctuation&quot;&gt;{&lt;/span&gt; &lt;span class=&quot;hljs-attr&quot;&gt;&quot;name&quot;&lt;/span&gt;&lt;span class=&quot;hljs-punctuation&quot;&gt;:&lt;/span&gt; &lt;span class=&quot;hljs-string&quot;&gt;&quot;Jebing&quot;&lt;/span&gt;&lt;span class=&quot;hljs-punctuation&quot;&gt;,&lt;/span&gt; &lt;span class=&quot;hljs-attr&quot;&gt;&quot;distance&quot;&lt;/span&gt;&lt;span class=&quot;hljs-punctuation&quot;&gt;:&lt;/span&gt; &lt;span class=&quot;hljs-number&quot;&gt;300&lt;/span&gt; &lt;span class=&quot;hljs-punctuation&quot;&gt;}&lt;/span&gt;&lt;span class=&quot;hljs-punctuation&quot;&gt;,&lt;/span&gt;&lt;br/&gt;    &lt;span class=&quot;hljs-punctuation&quot;&gt;{&lt;/span&gt; &lt;span class=&quot;hljs-attr&quot;&gt;&quot;name&quot;&lt;/span&gt;&lt;span class=&quot;hljs-punctuation&quot;&gt;:&lt;/span&gt; &lt;span class=&quot;hljs-string&quot;&gt;&quot;Sapir&quot;&lt;/span&gt;&lt;span class=&quot;hljs-punctuation&quot;&gt;,&lt;/span&gt; &lt;span class=&quot;hljs-attr&quot;&gt;&quot;distance&quot;&lt;/span&gt;&lt;span class=&quot;hljs-punctuation&quot;&gt;:&lt;/span&gt; &lt;span class=&quot;hljs-number&quot;&gt;400&lt;/span&gt; &lt;span class=&quot;hljs-punctuation&quot;&gt;}&lt;/span&gt;&lt;span class=&quot;hljs-punctuation&quot;&gt;,&lt;/span&gt;&lt;br/&gt;    &lt;span class=&quot;hljs-punctuation&quot;&gt;{&lt;/span&gt; &lt;span class=&quot;hljs-attr&quot;&gt;&quot;name&quot;&lt;/span&gt;&lt;span class=&quot;hljs-punctuation&quot;&gt;:&lt;/span&gt; &lt;span class=&quot;hljs-string&quot;&gt;&quot;Lerbin&quot;&lt;/span&gt;&lt;span class=&quot;hljs-punctuation&quot;&gt;,&lt;/span&gt; &lt;span class=&quot;hljs-attr&quot;&gt;&quot;distance&quot;&lt;/span&gt;&lt;span class=&quot;hljs-punctuation&quot;&gt;:&lt;/span&gt; &lt;span class=&quot;hljs-number&quot;&gt;500&lt;/span&gt; &lt;span class=&quot;hljs-punctuation&quot;&gt;}&lt;/span&gt;&lt;span class=&quot;hljs-punctuation&quot;&gt;,&lt;/span&gt;&lt;br/&gt;    &lt;span class=&quot;hljs-punctuation&quot;&gt;{&lt;/span&gt; &lt;span class=&quot;hljs-attr&quot;&gt;&quot;name&quot;&lt;/span&gt;&lt;span class=&quot;hljs-punctuation&quot;&gt;:&lt;/span&gt; &lt;span class=&quot;hljs-string&quot;&gt;&quot;Pingasor&quot;&lt;/span&gt;&lt;span class=&quot;hljs-punctuation&quot;&gt;,&lt;/span&gt; &lt;span class=&quot;hljs-attr&quot;&gt;&quot;distance&quot;&lt;/span&gt;&lt;span class=&quot;hljs-punctuation&quot;&gt;:&lt;/span&gt; &lt;span class=&quot;hljs-number&quot;&gt;600&lt;/span&gt; &lt;span class=&quot;hljs-punctuation&quot;&gt;}&lt;/span&gt;&lt;br/&gt;  &lt;span class=&quot;hljs-punctuation&quot;&gt;]&lt;/span&gt;&lt;br/&gt;&lt;span class=&quot;hljs-punctuation&quot;&gt;}&lt;/span&gt;&lt;br/&gt;&lt;/code&gt;&lt;/div&gt;&lt;/pre&gt;&lt;/div&gt;&lt;/div&gt;&lt;/blockquote&gt;" style="whiteSpace=wrap;html=1;fontSize=18;align=left;" parent="1" vertex="1">
                    <mxGeometry x="40" y="320" width="440" height="240" as="geometry"/>
                </mxCell>
                <mxCell id="10" value="&lt;blockquote style=&quot;margin: 0 0 0 40px; border: none; padding: 0px;&quot;&gt;&lt;div style=&quot;font-size: 14px;&quot;&gt;&lt;div&gt;&lt;pre&gt;&lt;div style=&quot;font-size: 13px;&quot; class=&quot;p-4 overflow-y-auto&quot;&gt;&lt;code class=&quot;!whitespace-pre hljs language-json&quot;&gt;&lt;span class=&quot;hljs-punctuation&quot;&gt;[&lt;/span&gt;&lt;br&gt;  &lt;span class=&quot;hljs-punctuation&quot;&gt;{&lt;/span&gt;&lt;br&gt;    &lt;span class=&quot;hljs-attr&quot;&gt;&quot;name&quot;&lt;/span&gt;&lt;span class=&quot;hljs-punctuation&quot;&gt;:&lt;/span&gt; &lt;span class=&quot;hljs-string&quot;&gt;&quot;Space pod&quot;&lt;/span&gt;&lt;span class=&quot;hljs-punctuation&quot;&gt;,&lt;/span&gt;&lt;br&gt;    &lt;span class=&quot;hljs-attr&quot;&gt;&quot;total_no&quot;&lt;/span&gt;&lt;span class=&quot;hljs-punctuation&quot;&gt;:&lt;/span&gt; &lt;span class=&quot;hljs-number&quot;&gt;2&lt;/span&gt;&lt;span class=&quot;hljs-punctuation&quot;&gt;,&lt;/span&gt;&lt;br&gt;    &lt;span class=&quot;hljs-attr&quot;&gt;&quot;max_distance&quot;&lt;/span&gt;&lt;span class=&quot;hljs-punctuation&quot;&gt;:&lt;/span&gt; &lt;span class=&quot;hljs-number&quot;&gt;200&lt;/span&gt;&lt;span class=&quot;hljs-punctuation&quot;&gt;,&lt;/span&gt;&lt;br&gt;    &lt;span class=&quot;hljs-attr&quot;&gt;&quot;speed&quot;&lt;/span&gt;&lt;span class=&quot;hljs-punctuation&quot;&gt;:&lt;/span&gt; &lt;span class=&quot;hljs-number&quot;&gt;2&lt;/span&gt;&lt;br&gt;  &lt;span class=&quot;hljs-punctuation&quot;&gt;}&lt;/span&gt;&lt;span class=&quot;hljs-punctuation&quot;&gt;,&lt;/span&gt;&lt;br&gt;  &lt;span class=&quot;hljs-punctuation&quot;&gt;{&lt;/span&gt;&lt;br&gt;    &lt;span class=&quot;hljs-attr&quot;&gt;&quot;name&quot;&lt;/span&gt;&lt;span class=&quot;hljs-punctuation&quot;&gt;:&lt;/span&gt; &lt;span class=&quot;hljs-string&quot;&gt;&quot;Space rocket&quot;&lt;/span&gt;&lt;span class=&quot;hljs-punctuation&quot;&gt;,&lt;/span&gt;&lt;br&gt;    &lt;span class=&quot;hljs-attr&quot;&gt;&quot;total_no&quot;&lt;/span&gt;&lt;span class=&quot;hljs-punctuation&quot;&gt;:&lt;/span&gt; &lt;span class=&quot;hljs-number&quot;&gt;1&lt;/span&gt;&lt;span class=&quot;hljs-punctuation&quot;&gt;,&lt;/span&gt;&lt;br&gt;    &lt;span class=&quot;hljs-attr&quot;&gt;&quot;max_distance&quot;&lt;/span&gt;&lt;span class=&quot;hljs-punctuation&quot;&gt;:&lt;/span&gt; &lt;span class=&quot;hljs-number&quot;&gt;300&lt;/span&gt;&lt;span class=&quot;hljs-punctuation&quot;&gt;,&lt;/span&gt;&lt;br&gt;    &lt;span class=&quot;hljs-attr&quot;&gt;&quot;speed&quot;&lt;/span&gt;&lt;span class=&quot;hljs-punctuation&quot;&gt;:&lt;/span&gt; &lt;span class=&quot;hljs-number&quot;&gt;4&lt;/span&gt;&lt;br&gt;  &lt;span class=&quot;hljs-punctuation&quot;&gt;}&lt;/span&gt;&lt;span class=&quot;hljs-punctuation&quot;&gt;,&lt;/span&gt;&lt;br&gt;  &lt;span class=&quot;hljs-punctuation&quot;&gt;{&lt;/span&gt;&lt;br&gt;    &lt;span class=&quot;hljs-attr&quot;&gt;&quot;name&quot;&lt;/span&gt;&lt;span class=&quot;hljs-punctuation&quot;&gt;:&lt;/span&gt; &lt;span class=&quot;hljs-string&quot;&gt;&quot;Space shuttle&quot;&lt;/span&gt;&lt;span class=&quot;hljs-punctuation&quot;&gt;,&lt;/span&gt;&lt;br&gt;    &lt;span class=&quot;hljs-attr&quot;&gt;&quot;total_no&quot;&lt;/span&gt;&lt;span class=&quot;hljs-punctuation&quot;&gt;:&lt;/span&gt; &lt;span class=&quot;hljs-number&quot;&gt;1&lt;/span&gt;&lt;span class=&quot;hljs-punctuation&quot;&gt;,&lt;/span&gt;&lt;br&gt;    &lt;span class=&quot;hljs-attr&quot;&gt;&quot;max_distance&quot;&lt;/span&gt;&lt;span class=&quot;hljs-punctuation&quot;&gt;:&lt;/span&gt; &lt;span class=&quot;hljs-number&quot;&gt;400&lt;/span&gt;&lt;span class=&quot;hljs-punctuation&quot;&gt;,&lt;/span&gt;&lt;br&gt;    &lt;span class=&quot;hljs-attr&quot;&gt;&quot;speed&quot;&lt;/span&gt;&lt;span class=&quot;hljs-punctuation&quot;&gt;:&lt;/span&gt; &lt;span class=&quot;hljs-number&quot;&gt;5&lt;/span&gt;&lt;br&gt;  &lt;span class=&quot;hljs-punctuation&quot;&gt;}&lt;/span&gt;&lt;span class=&quot;hljs-punctuation&quot;&gt;,&lt;/span&gt;&lt;br&gt;  &lt;span class=&quot;hljs-punctuation&quot;&gt;{&lt;/span&gt;&lt;br&gt;    &lt;span class=&quot;hljs-attr&quot;&gt;&quot;name&quot;&lt;/span&gt;&lt;span class=&quot;hljs-punctuation&quot;&gt;:&lt;/span&gt; &lt;span class=&quot;hljs-string&quot;&gt;&quot;Space ship&quot;&lt;/span&gt;&lt;span class=&quot;hljs-punctuation&quot;&gt;,&lt;/span&gt;&lt;br&gt;    &lt;span class=&quot;hljs-attr&quot;&gt;&quot;total_no&quot;&lt;/span&gt;&lt;span class=&quot;hljs-punctuation&quot;&gt;:&lt;/span&gt; &lt;span class=&quot;hljs-number&quot;&gt;2&lt;/span&gt;&lt;span class=&quot;hljs-punctuation&quot;&gt;,&lt;/span&gt;&lt;br&gt;    &lt;span class=&quot;hljs-attr&quot;&gt;&quot;max_distance&quot;&lt;/span&gt;&lt;span class=&quot;hljs-punctuation&quot;&gt;:&lt;/span&gt; &lt;span class=&quot;hljs-number&quot;&gt;600&lt;/span&gt;&lt;span class=&quot;hljs-punctuation&quot;&gt;,&lt;/span&gt;&lt;br&gt;    &lt;span class=&quot;hljs-attr&quot;&gt;&quot;speed&quot;&lt;/span&gt;&lt;span class=&quot;hljs-punctuation&quot;&gt;:&lt;/span&gt; &lt;span class=&quot;hljs-number&quot;&gt;10&lt;/span&gt;&lt;br&gt;  &lt;span class=&quot;hljs-punctuation&quot;&gt;}&lt;/span&gt;&lt;br&gt;&lt;span class=&quot;hljs-punctuation&quot;&gt;]&lt;/span&gt;&lt;br&gt;&lt;/code&gt;&lt;/div&gt;&lt;/pre&gt;&lt;/div&gt;&lt;/div&gt;&lt;/blockquote&gt;" style="whiteSpace=wrap;html=1;fontSize=18;align=left;" parent="1" vertex="1">
                    <mxGeometry x="520" y="320" width="320" height="440" as="geometry"/>
                </mxCell>
                <mxCell id="14" value="&lt;font style=&quot;font-size: 36px;&quot; color=&quot;#d7ba7d&quot;&gt;Falcons&lt;br&gt;Location&lt;br&gt;&lt;/font&gt;" style="whiteSpace=wrap;html=1;fontSize=18;align=center;" parent="1" vertex="1">
                    <mxGeometry x="880" y="320" width="320" height="240" as="geometry"/>
                </mxCell>
            </root>
        </mxGraphModel>
    </diagram>
</mxfile>